Coordinates
version=1
nRows=6
nColumns=63
inDegrees=yes

Units are S.I. units (second, meters, Newtons, ...)
If the header above contains a line with 'inDegrees', this indicates whether rotational values are in degrees (yes) or radians (no).

endheader
time	pelvis_tilt	pelvis_list	pelvis_rotation	pelvis_tx	pelvis_ty	pelvis_tz	hip_flexion_r	hip_adduction_r	hip_rotation_r	knee_angle_r	knee_angle_r_beta	ankle_angle_r	subtalar_angle_r	mtp_angle_r	hip_flexion_l	hip_adduction_l	hip_rotation_l	knee_angle_l	knee_angle_l_beta	ankle_angle_l	subtalar_angle_l	mtp_angle_l	L5_S1_Flex_Ext	L5_S1_Lat_Bending	L5_S1_axial_rotation	L4_L5_Flex_Ext	L4_L5_Lat_Bending	L4_L5_axial_rotation	L3_L4_Flex_Ext	L3_L4_Lat_Bending	L3_L4_axial_rotation	L2_L3_Flex_Ext	L2_L3_Lat_Bending	L2_L3_axial_rotation	L1_L2_Flex_Ext	L1_L2_Lat_Bending	L1_L2_axial_rotation	L1_T12_Flex_Ext	L1_T12_Lat_Bending	L1_T12_axial_rotation	Abs_r3	Abs_r2	Abs_r1	Abs_t1	Abs_t2	neck_flexion	neck_bending	neck_rotation	arm_flex_r	arm_add_r	arm_rot_r	elbow_flex_r	pro_sup_r	wrist_flex_r	wrist_dev_r	arm_flex_l	arm_add_l	arm_rot_l	elbow_flex_l	pro_sup_l	wrist_flex_l	wrist_dev_l
2.933333	2.459981	-2.544357	82.853559	0.321061	0.803016	0.515774	-2.604081	0.470377	15.070619	0.319978	0.005585	18.819288	-11.359087	0.000000	-2.607478	-1.922689	1.809334	4.016895	0.070108	24.251215	-12.815098	0.000000	0.031232	-0.015669	1.325831	0.058001	-0.020840	1.408696	0.051311	-0.038097	1.408696	0.035695	-0.038097	1.160102	0.029002	-0.031952	1.077238	0.017846	-0.024271	0.994373	0.223088	-0.177249	7.373875	0.000000	0.000000	9.903421	3.772254	9.967244	6.242857	-79.541283	61.801016	9.488534	9.223851	-7.540191	2.567724	-30.131590	-81.853225	-29.971008	1.719632	81.644440	-10.048418	1.354582
2.950000	2.336142	-2.567994	82.535237	0.321534	0.803116	0.516385	-2.523025	0.340002	15.291852	0.336032	0.005865	18.563290	-11.393352	0.000000	-2.534394	-1.801724	1.565968	3.936567	0.068706	24.420389	-12.735294	0.000000	0.027910	-0.033363	1.399958	0.051832	-0.044373	1.487455	0.045854	-0.081120	1.487455	0.031899	-0.081120	1.224963	0.025917	-0.068035	1.137466	0.015948	-0.051680	1.049969	0.199359	-0.377413	7.786147	0.000000	0.000000	10.015927	3.858533	9.832957	6.137744	-79.365330	61.306076	9.478351	9.210407	-7.542615	2.585681	-28.234355	-81.891506	-30.127840	1.682527	81.392135	-10.461616	1.655703
2.966667	2.177837	-2.564749	82.168907	0.322082	0.803283	0.517150	-2.449746	0.172291	15.593170	0.352604	0.006154	18.308330	-11.454304	0.000000	-2.477339	-1.648255	1.224695	3.821602	0.066700	24.663313	-12.514160	0.000000	0.019238	-0.056895	1.493747	0.035727	-0.075671	1.587106	0.031606	-0.138336	1.587106	0.021987	-0.138336	1.307028	0.017865	-0.116021	1.213669	0.010993	-0.088131	1.120310	0.137416	-0.643613	8.307770	0.000000	0.000000	10.064698	3.960991	9.598758	5.600028	-79.142939	60.428192	9.434968	9.207951	-7.544982	2.641183	-25.806996	-81.978103	-29.667887	1.681023	80.843419	-10.959698	2.063324
2.983333	1.989230	-2.545671	81.776189	0.322652	0.803483	0.517986	-2.388517	-0.028391	16.131554	0.348151	0.006076	17.987592	-11.816731	0.000000	-2.442902	-1.457528	1.084403	3.648863	0.063685	24.849885	-12.558951	0.000000	0.008157	-0.085226	1.602924	0.015148	-0.113350	1.703107	0.013401	-0.207218	1.703107	0.009323	-0.207218	1.402558	0.007575	-0.173792	1.302376	0.004661	-0.132014	1.202193	0.058265	-0.964089	8.914982	0.000000	0.000000	10.030547	4.059706	9.252645	4.642557	-78.886104	59.419100	9.343618	8.957809	-7.529093	2.742357	-23.041407	-82.114431	-28.599106	1.693743	80.106601	-11.446284	2.472236
3.000000	1.777959	-2.531934	81.415216	0.323145	0.803684	0.518929	-2.299526	-0.250618	16.524578	0.373685	0.006522	17.766339	-11.995975	0.000000	-2.362861	-1.250384	0.832008	3.524368	0.061512	25.149601	-12.346090	0.000000	-0.003020	-0.116434	1.715043	-0.005609	-0.154858	1.822233	-0.004962	-0.283099	1.822233	-0.003452	-0.283099	1.500662	-0.002805	-0.237433	1.393472	-0.001726	-0.180357	1.286282	-0.021574	-1.317130	9.538553	0.000000	0.000000	9.903631	4.168201	8.864459	3.209832	-78.621977	57.941804	9.260189	8.785283	-7.534421	2.914230	-20.378091	-82.284886	-26.928895	1.779056	78.766729	-11.905758	2.938841
3.016667	1.569344	-2.513820	81.155620	0.323474	0.803865	0.519911	-2.220262	-0.468257	16.771139	0.396136	0.006914	17.598784	-12.104805	0.000000	-2.266471	-1.044218	0.793483	3.420473	0.059699	25.427544	-12.263890	0.000000	-0.015024	-0.147300	1.816044	-0.027902	-0.195909	1.929547	-0.024684	-0.358146	1.929547	-0.017171	-0.358146	1.589039	-0.013952	-0.300375	1.475536	-0.008585	-0.228168	1.362033	-0.107318	-1.666289	10.100295	0.000000	0.000000	9.696661	4.238412	8.403151	1.400948	-78.367926	56.145759	9.178385	8.598479	-7.571945	3.148229	-17.564358	-82.496679	-24.899369	1.867885	77.784306	-12.298802	3.395750
